<svg xmlns="http://www.w3.org/2000/svg" xmlns:xlink="http://www.w3.org/1999/xlink" version="1.1" width="38.1356pt" height="37.5124pt" viewBox="0 0 38.1356 37.5124">
<defs>
<clipPath id="clip_0">
<path transform="matrix(1,0,0,-1,0,37.5124)" d="M0 37.512H38.136V0H0Z"/>
</clipPath>
</defs>
<g id="layer_1" data-name="Keyvisual">
<g clip-path="url(#clip_0)">
<path transform="matrix(1,0,0,-1,37.1726,22.2098)" d="M0 0C-.435 .949-.49 1.854-.246 2.825-.216 2.942-.204 3.064-.189 3.185-.089 3.97-.317 4.953-.778 5.725-1.389 6.748-2.27 7.217-2.566 7.37-3.479 7.841-4.463 7.931-5.343 7.868-4.894 8.05-4.729 8.148-4.627 8.204-3.61 8.762-2.993 9.581-2.84 10.752-2.719 11.679-2.947 12.496-3.506 13.23-3.96 13.826-4.166 14.494-4.126 15.241-4.116 15.417-4.125 15.593-4.133 15.769-4.208 17.335-5.477 18.977-6.917 19.147-7.954 19.269-8.756 19.692-9.458 20.406-9.542 20.492-9.641 20.566-9.736 20.642-10.355 21.135-11.313 21.452-12.212 21.46-13.404 21.47-14.262 20.961-14.546 20.788-16.428 19.64-16.992 17.306-17.222 16.416-17.404 15.714-17.63 14.943-17.906 14.094-17.904 14.182-17.903 14.274-17.901 14.374-17.867 16.821-17.981 17.311-18.021 17.534-18.226 18.676-18.806 19.522-19.867 20.039-20.708 20.449-21.555 20.494-22.428 20.197-23.138 19.957-23.836 19.974-24.532 20.251-24.695 20.315-24.866 20.363-25.035 20.411-26.543 20.839-28.504 20.159-29.124 18.848-29.57 17.904-30.226 17.279-31.126 16.841-31.235 16.788-31.336 16.718-31.439 16.652-32.103 16.223-32.709 15.416-33.002 14.565-33.392 13.439-33.183 12.464-33.109 12.139-32.62 9.99-30.587 8.712-29.817 8.21-29.292 7.868-28.728 7.476-28.122 7.034-28.285 7.071-28.447 7.108-28.609 7.144-28.774 7.167-29.026 7.202-29.333 7.243-31.76 7.561-32.259 7.504-32.485 7.491-33.644 7.419-34.551 6.942-35.188 5.948-35.693 5.16-35.836 4.325-35.643 3.423-35.486 2.69-35.585 1.998-35.94 1.339-36.023 1.184-36.091 1.021-36.158 .858-36.758-.59-36.31-2.616-35.08-3.384-34.195-3.937-33.65-4.662-33.32-5.606-33.28-5.721-33.222-5.829-33.168-5.939-32.819-6.649-32.088-7.344-31.277-7.734-30.204-8.251-29.211-8.158-28.88-8.122-27.042-7.924-25.69-6.58-24.954-5.733-24.991-5.845-25.031-5.97-25.076-6.108-25.826-8.437-25.861-8.939-25.888-9.163-26.027-10.316-25.721-11.294-24.858-12.1-24.175-12.739-23.378-13.03-22.457-13.003-21.707-12.981-21.044-13.203-20.46-13.671-20.323-13.781-20.175-13.877-20.027-13.972-18.711-14.824-16.637-14.749-15.66-13.677-14.956-12.906-14.145-12.501-13.156-12.346-13.037-12.328-12.92-12.291-12.802-12.257-12.041-12.042-11.226-11.448-10.695-10.721-9.993-9.759-9.906-8.765-9.881-8.433-9.813-7.513-10.049-6.662-10.389-5.929-8.759-7.326-8.342-7.54-8.156-7.647-7.15-8.226-6.13-8.327-5.05-7.848-4.195-7.469-3.616-6.85-3.28-5.991-3.007-5.293-2.544-4.77-1.884-4.415-1.729-4.332-1.583-4.233-1.437-4.135-.139-3.257 .604-1.319 0 0" fill="#ffeb00"/>
<path transform="matrix(1,0,0,-1,37.1726,22.2098)" stroke-width="1.5" stroke-linecap="round" stroke-linejoin="round" fill="none" stroke="#000000" d="M0 0C-.435 .949-.49 1.854-.246 2.825-.216 2.942-.204 3.064-.189 3.185-.089 3.97-.317 4.953-.778 5.725-1.389 6.748-2.27 7.217-2.566 7.37-3.479 7.841-4.463 7.931-5.343 7.868-4.894 8.05-4.729 8.148-4.627 8.204-3.61 8.762-2.993 9.581-2.84 10.752-2.719 11.679-2.947 12.496-3.506 13.23-3.96 13.826-4.166 14.494-4.126 15.241-4.116 15.417-4.125 15.593-4.133 15.769-4.208 17.335-5.477 18.977-6.917 19.147-7.954 19.269-8.756 19.692-9.458 20.406-9.542 20.492-9.641 20.566-9.736 20.642-10.355 21.135-11.313 21.452-12.212 21.46-13.404 21.47-14.262 20.961-14.546 20.788-16.428 19.64-16.992 17.306-17.222 16.416-17.404 15.714-17.63 14.943-17.906 14.094-17.904 14.182-17.903 14.274-17.901 14.374-17.867 16.821-17.981 17.311-18.021 17.534-18.226 18.676-18.806 19.522-19.867 20.039-20.708 20.449-21.555 20.494-22.428 20.197-23.138 19.957-23.836 19.974-24.532 20.251-24.695 20.315-24.866 20.363-25.035 20.411-26.543 20.839-28.504 20.159-29.124 18.848-29.57 17.904-30.226 17.279-31.126 16.841-31.235 16.788-31.336 16.718-31.439 16.652-32.103 16.223-32.709 15.416-33.002 14.565-33.392 13.439-33.183 12.464-33.109 12.139-32.62 9.99-30.587 8.712-29.817 8.21-29.292 7.868-28.728 7.476-28.122 7.034-28.285 7.071-28.447 7.108-28.609 7.144-28.774 7.167-29.026 7.202-29.333 7.243-31.76 7.561-32.259 7.504-32.485 7.491-33.644 7.419-34.551 6.942-35.188 5.948-35.693 5.16-35.836 4.325-35.643 3.423-35.486 2.69-35.585 1.998-35.94 1.339-36.023 1.184-36.091 1.021-36.158 .858-36.758-.59-36.31-2.616-35.08-3.384-34.195-3.937-33.65-4.662-33.32-5.606-33.28-5.721-33.222-5.829-33.168-5.939-32.819-6.649-32.088-7.344-31.277-7.734-30.204-8.251-29.211-8.158-28.88-8.122-27.042-7.924-25.69-6.58-24.954-5.733-24.991-5.845-25.031-5.97-25.076-6.108-25.826-8.437-25.861-8.939-25.888-9.163-26.027-10.316-25.721-11.294-24.858-12.1-24.175-12.739-23.378-13.03-22.457-13.003-21.707-12.981-21.044-13.203-20.46-13.671-20.323-13.781-20.175-13.877-20.027-13.972-18.711-14.824-16.637-14.749-15.66-13.677-14.956-12.906-14.145-12.501-13.156-12.346-13.037-12.328-12.92-12.291-12.802-12.257-12.041-12.042-11.226-11.448-10.695-10.721-9.993-9.759-9.906-8.765-9.881-8.433-9.813-7.513-10.049-6.662-10.389-5.929-8.759-7.326-8.342-7.54-8.156-7.647-7.15-8.226-6.13-8.327-5.05-7.848-4.195-7.469-3.616-6.85-3.28-5.991-3.007-5.293-2.544-4.77-1.884-4.415-1.729-4.332-1.583-4.233-1.437-4.135-.139-3.257 .604-1.319 0 0Z"/>
<path transform="matrix(1,0,0,-1,26.8523,20.982502)" d="M0 0C-.153 .433-.141 .831 .004 1.245 .022 1.296 .032 1.349 .043 1.401 .118 1.74 .057 2.179-.114 2.536-.341 3.007-.708 3.247-.831 3.326-1.212 3.568-1.639 3.646-2.027 3.653-1.823 3.715-1.747 3.752-1.7 3.772-1.233 3.976-.931 4.31-.818 4.816-.728 5.217-.795 5.584-1.011 5.927-1.186 6.205-1.25 6.506-1.203 6.831-1.192 6.908-1.189 6.985-1.185 7.062-1.156 7.75-1.646 8.519-2.27 8.65-2.719 8.745-3.053 8.962-3.331 9.301-3.365 9.343-3.405 9.379-3.444 9.416-3.695 9.656-4.102 9.832-4.495 9.871-5.016 9.923-5.411 9.734-5.543 9.67-6.411 9.242-6.75 8.243-6.886 7.863-6.994 7.563-7.123 7.234-7.277 6.874-7.273 6.912-7.269 6.952-7.264 6.996-7.152 8.065-7.183 8.284-7.191 8.383-7.236 8.891-7.456 9.284-7.9 9.552-8.252 9.765-8.621 9.818-9.014 9.723-9.334 9.645-9.639 9.681-9.933 9.829-10.002 9.864-10.074 9.892-10.146 9.919-10.789 10.166-11.674 9.946-11.997 9.397-12.23 9.002-12.541 8.754-12.953 8.598-13.002 8.579-13.049 8.553-13.097 8.528-13.404 8.366-13.701 8.037-13.863 7.677-14.078 7.199-14.025 6.764-14.006 6.619-13.877 5.659-13.038 5.02-12.721 4.77-12.505 4.6-12.273 4.406-12.026 4.189-12.095 4.211-12.165 4.234-12.234 4.256-12.306 4.273-12.415 4.298-12.547 4.328-13.596 4.563-13.817 4.558-13.917 4.561-14.426 4.575-14.842 4.402-15.16 3.993-15.412 3.668-15.508 3.308-15.459 2.906-15.419 2.579-15.49 2.28-15.671 2.006-15.714 1.942-15.75 1.873-15.786 1.804-16.105 1.194-15.99 .29-15.482-.095-15.116-.371-14.906-.71-14.799-1.136-14.786-1.188-14.765-1.238-14.746-1.288-14.621-1.612-14.329-1.945-13.99-2.148-13.541-2.417-13.102-2.415-12.956-2.412-12.144-2.398-11.5-1.864-11.144-1.522-11.165-1.57-11.187-1.623-11.212-1.681-11.633-2.671-11.668-2.889-11.688-2.986-11.795-3.485-11.699-3.925-11.354-4.312-11.08-4.618-10.743-4.777-10.339-4.802-10.01-4.822-9.729-4.945-9.492-5.173-9.436-5.226-9.375-5.274-9.314-5.322-8.772-5.746-7.862-5.795-7.392-5.365-7.053-5.055-6.683-4.91-6.244-4.882-6.191-4.878-6.138-4.867-6.086-4.857-5.744-4.793-5.364-4.565-5.103-4.268-4.758-3.875-4.68-3.443-4.656-3.299-4.59-2.899-4.66-2.518-4.779-2.183-4.122-2.859-3.948-2.969-3.87-3.023-3.453-3.316-3.011-3.401-2.52-3.234-2.13-3.102-1.853-2.854-1.672-2.492-1.525-2.197-1.301-1.986-.999-1.857-.928-1.827-.86-1.79-.792-1.752-.189-1.419 .212-.601 0 0" fill="#ff3f46"/>
<path transform="matrix(1,0,0,-1,26.8523,20.982502)" stroke-width="1.5" stroke-linecap="round" stroke-linejoin="round" fill="none" stroke="#000000" d="M0 0C-.153 .433-.141 .831 .004 1.245 .022 1.296 .032 1.349 .043 1.401 .118 1.74 .057 2.179-.114 2.536-.341 3.007-.708 3.247-.831 3.326-1.212 3.568-1.639 3.646-2.027 3.653-1.823 3.715-1.747 3.752-1.7 3.772-1.233 3.976-.931 4.31-.818 4.816-.728 5.217-.795 5.584-1.011 5.927-1.186 6.205-1.25 6.506-1.203 6.831-1.192 6.908-1.189 6.985-1.185 7.062-1.156 7.75-1.646 8.519-2.27 8.65-2.719 8.745-3.053 8.962-3.331 9.301-3.365 9.343-3.405 9.379-3.444 9.416-3.695 9.656-4.102 9.832-4.495 9.871-5.016 9.923-5.411 9.734-5.543 9.67-6.411 9.242-6.75 8.243-6.886 7.863-6.994 7.563-7.123 7.234-7.277 6.874-7.273 6.912-7.269 6.952-7.264 6.996-7.152 8.065-7.183 8.284-7.191 8.383-7.236 8.891-7.456 9.284-7.9 9.552-8.252 9.765-8.621 9.818-9.014 9.723-9.334 9.645-9.639 9.681-9.933 9.829-10.002 9.864-10.074 9.892-10.146 9.919-10.789 10.166-11.674 9.946-11.997 9.397-12.23 9.002-12.541 8.754-12.953 8.598-13.002 8.579-13.049 8.553-13.097 8.528-13.404 8.366-13.701 8.037-13.863 7.677-14.078 7.199-14.025 6.764-14.006 6.619-13.877 5.659-13.038 5.02-12.721 4.77-12.505 4.6-12.273 4.406-12.026 4.189-12.095 4.211-12.165 4.234-12.234 4.256-12.306 4.273-12.415 4.298-12.547 4.328-13.596 4.563-13.817 4.558-13.917 4.561-14.426 4.575-14.842 4.402-15.16 3.993-15.412 3.668-15.508 3.308-15.459 2.906-15.419 2.579-15.49 2.28-15.671 2.006-15.714 1.942-15.75 1.873-15.786 1.804-16.105 1.194-15.99 .29-15.482-.095-15.116-.371-14.906-.71-14.799-1.136-14.786-1.188-14.765-1.238-14.746-1.288-14.621-1.612-14.329-1.945-13.99-2.148-13.541-2.417-13.102-2.415-12.956-2.412-12.144-2.398-11.5-1.864-11.144-1.522-11.165-1.57-11.187-1.623-11.212-1.681-11.633-2.671-11.668-2.889-11.688-2.986-11.795-3.485-11.699-3.925-11.354-4.312-11.08-4.618-10.743-4.777-10.339-4.802-10.01-4.822-9.729-4.945-9.492-5.173-9.436-5.226-9.375-5.274-9.314-5.322-8.772-5.746-7.862-5.795-7.392-5.365-7.053-5.055-6.683-4.91-6.244-4.882-6.191-4.878-6.138-4.867-6.086-4.857-5.744-4.793-5.364-4.565-5.103-4.268-4.758-3.875-4.68-3.443-4.656-3.299-4.59-2.899-4.66-2.518-4.779-2.183-4.122-2.859-3.948-2.969-3.87-3.023-3.453-3.316-3.011-3.401-2.52-3.234-2.13-3.102-1.853-2.854-1.672-2.492-1.525-2.197-1.301-1.986-.999-1.857-.928-1.827-.86-1.79-.792-1.752-.189-1.419 .212-.601 0 0Z"/>
<path transform="matrix(1,0,0,-1,18.9526,17.412802)" d="M0 0C-1.119 .98-2.352 1.824-3.664 2.509-5.328 3.378-7.107 3.984-8.964 4.324-9.037 4.518-9.131 4.707-9.255 4.884-10.049 6.021-11.615 6.3-12.752 5.506-13.889 4.712-14.167 3.146-13.373 2.009-12.579 .872-11.014 .594-9.877 1.388-9.685 1.522-9.52 1.679-9.378 1.851-7.782 1.554-6.254 1.032-4.825 .285-3.689-.307-2.622-1.038-1.652-1.887-1.209-2.275-.571-2.295-.109-1.973-.027-1.916 .049-1.848 .118-1.77 .574-1.249 .521-.456 0 0" fill="#ffc2de"/>
<path transform="matrix(1,0,0,-1,18.9526,17.412802)" stroke-width="1.5" stroke-linecap="round" stroke-linejoin="round" fill="none" stroke="#000000" d="M0 0C-1.119 .98-2.352 1.824-3.664 2.509-5.328 3.378-7.107 3.984-8.964 4.324-9.037 4.518-9.131 4.707-9.255 4.884-10.049 6.021-11.615 6.3-12.752 5.506-13.889 4.712-14.167 3.146-13.373 2.009-12.579 .872-11.014 .594-9.877 1.388-9.685 1.522-9.52 1.679-9.378 1.851-7.782 1.554-6.254 1.032-4.825 .285-3.689-.307-2.622-1.038-1.652-1.887-1.209-2.275-.571-2.295-.109-1.973-.027-1.916 .049-1.848 .118-1.77 .574-1.249 .521-.456 0 0Z"/>
</g>
</g>
</svg>
